<?xml version="1.0" standalone="no"?>
<!DOCTYPE svg PUBLIC "-//W3C//DTD SVG 20010904//EN"
 "http://www.w3.org/TR/2001/REC-SVG-20010904/DTD/svg10.dtd">
<svg version="1.0" xmlns="http://www.w3.org/2000/svg"
 width="700.000000pt" height="700.000000pt" viewBox="0 0 700.000000 700.000000"
 preserveAspectRatio="xMidYMid meet">
<metadata>
Created by potrace 1.11, written by Peter Selinger 2001-2013
</metadata>
<g transform="translate(0.000000,700.000000) scale(0.100000,-0.100000)"
fill="#000000" stroke="none">
<path d="M3390 6177 l0 -174 -166 1 c-99 1 -169 -3 -174 -9 -8 -10 -12 -219
-4 -246 4 -13 28 -15 172 -15 l167 1 3 -166 2 -167 -47 -11 c-87 -22 -190 -79
-252 -139 -127 -125 -162 -289 -91 -436 87 -184 290 -295 530 -291 106 2 178
16 259 52 275 122 377 385 234 601 -63 94 -178 174 -302 208 l-61 17 0 164 0
163 173 0 173 0 0 135 c0 89 -3 135 -10 136 -6 0 -84 0 -173 0 l-163 -1 0 175
0 175 -135 0 -135 0 0 -173z m260 -1002 c90 -36 142 -86 164 -157 67 -216
-292 -354 -524 -201 -54 35 -84 87 -86 147 -3 90 54 162 166 205 61 24 84 28
154 26 48 -2 99 -10 126 -20z"/>
<path d="M1867 4404 c-1 -1 -43 -4 -92 -7 -78 -5 -135 -13 -320 -43 -103 -16
-191 -64 -227 -123 -32 -53 -30 -180 6 -320 14 -57 24 -107 21 -109 -3 -3 -33
-4 -67 -2 -140 6 -289 0 -368 -15 -14 -3 -50 -9 -80 -15 -200 -36 -295 -119
-293 -256 1 -70 29 -146 106 -294 27 -52 81 -156 119 -230 39 -74 94 -180 123
-235 50 -95 99 -190 280 -540 43 -82 101 -195 130 -250 29 -55 94 -181 145
-280 104 -203 108 -208 128 -200 49 18 380 84 512 100 30 4 62 9 70 10 8 1 44
6 80 10 36 4 72 9 80 10 8 1 51 6 95 10 44 4 94 9 110 10 29 3 122 11 250 20
223 16 378 20 830 20 436 0 671 -5 860 -20 22 -2 84 -6 139 -10 54 -4 106 -8
115 -10 9 -1 52 -6 96 -10 107 -9 135 -12 330 -40 61 -9 121 -18 135 -21 14
-2 43 -7 65 -10 43 -6 122 -23 253 -53 l82 -19 12 22 c6 11 23 44 38 71 15 28
71 136 125 240 54 105 117 226 140 270 23 44 79 150 123 235 79 155 181 350
319 615 40 77 112 218 159 312 80 160 87 178 92 245 10 167 -75 240 -333 287
-128 23 -221 28 -395 21 l-75 -3 3 29 c2 16 9 54 17 84 34 140 38 255 10 311
-41 80 -113 114 -325 148 -168 27 -252 34 -401 34 -99 0 -302 -11 -329 -18 -3
-1 -36 -5 -75 -10 -38 -5 -72 -9 -75 -10 -3 0 -27 -4 -53 -9 -89 -14 -234 -49
-347 -82 -183 -55 -429 -162 -603 -263 l-89 -51 -101 58 c-317 182 -732 322
-1062 358 -27 3 -63 7 -80 9 -70 10 -400 25 -408 19z m3376 -308 c49 -5 98 -9
110 -10 73 -9 124 -18 133 -24 7 -5 -22 -130 -78 -347 -128 -493 -199 -768
-203 -785 -2 -8 -38 -148 -80 -310 -43 -162 -99 -380 -126 -485 -28 -104 -55
-205 -60 -223 l-11 -34 -72 7 c-39 3 -78 8 -86 10 -8 2 -51 7 -95 11 -44 3
-96 8 -115 9 -33 3 -156 12 -295 20 -33 2 -172 7 -310 10 -137 4 -252 9 -254
11 -2 2 -5 400 -5 885 l-1 881 25 18 c44 31 212 117 310 158 141 59 336 118
505 152 160 32 180 34 345 45 58 4 106 8 107 9 5 4 180 -2 256 -8z m-2960 -13
c136 -17 153 -20 271 -44 257 -53 536 -161 763 -295 l33 -19 0 -887 0 -888
-107 -1 c-181 -2 -519 -16 -608 -24 -22 -2 -78 -7 -125 -9 -47 -3 -107 -8
-135 -11 -27 -4 -68 -8 -90 -10 -22 -2 -70 -7 -107 -11 -54 -5 -68 -3 -69 7 0
8 -2 21 -5 29 -2 8 -17 65 -33 125 -16 61 -50 191 -76 290 -26 99 -62 239 -80
310 -102 395 -168 648 -210 810 -20 77 -54 210 -77 295 -22 85 -42 161 -43
170 -2 8 -11 42 -20 74 -8 32 -14 61 -11 63 2 2 16 6 32 9 16 3 36 7 44 9 8 2
53 7 100 11 47 3 87 8 89 10 10 9 371 -1 464 -13z m-971 -550 c22 -3 38 -11
41 -21 2 -10 35 -116 72 -237 63 -206 96 -314 230 -755 29 -96 83 -274 120
-395 37 -121 71 -234 75 -251 l7 -31 -129 -22 c-125 -22 -130 -22 -144 -4 -7
10 -14 21 -14 25 0 4 -31 73 -70 154 -38 80 -70 148 -70 150 0 2 -36 78 -80
170 -44 91 -80 167 -80 169 0 2 -32 70 -71 152 -39 81 -92 195 -119 253 -26
58 -80 172 -119 254 -39 82 -71 150 -71 151 0 2 -20 45 -45 96 l-44 93 29 13
c27 11 101 27 170 36 39 5 271 5 312 0z m4783 -7 c68 -15 83 -19 112 -28 38
-11 42 4 -47 -183 -29 -60 -106 -225 -173 -365 -66 -140 -139 -295 -162 -345
-39 -82 -110 -233 -255 -540 -28 -60 -68 -145 -88 -188 l-37 -78 -35 6 c-19 3
-54 8 -77 11 -91 13 -148 30 -145 45 2 8 5 21 7 29 2 8 20 69 40 135 20 66 41
134 45 150 5 17 36 120 70 230 34 110 91 297 127 415 35 118 98 324 139 458
41 134 74 245 74 247 0 13 350 14 405 1z"/>
<path d="M3357 1234 c-1 -1 -108 -4 -237 -7 -129 -4 -271 -9 -315 -11 -44 -3
-116 -8 -160 -11 -44 -3 -100 -7 -125 -10 -25 -2 -76 -7 -115 -10 -160 -14
-228 -23 -415 -51 -164 -25 -318 -56 -458 -91 l-74 -18 7 -145 c4 -80 8 -151
8 -158 0 -7 7 -10 16 -7 20 6 218 53 251 59 14 3 34 7 45 9 11 3 40 8 65 12
25 4 52 9 60 10 8 1 35 6 60 10 25 4 52 9 60 10 8 2 38 6 65 9 28 3 82 11 120
16 67 9 110 13 240 25 33 3 80 8 105 10 25 3 90 8 145 11 55 3 127 7 160 9
345 22 972 22 1340 0 243 -14 328 -20 415 -30 19 -2 62 -7 95 -10 72 -6 151
-15 177 -20 10 -2 71 -11 136 -20 64 -9 135 -20 157 -25 22 -5 56 -12 75 -15
19 -3 43 -8 52 -11 9 -3 25 -7 35 -9 61 -12 118 -27 158 -41 26 -8 49 -13 52
-11 6 6 16 149 17 241 l1 69 -45 14 c-53 16 -239 59 -292 67 -21 3 -57 10 -80
15 -37 8 -77 14 -235 36 -129 17 -176 22 -273 30 -41 4 -85 8 -98 10 -13 2
-74 7 -135 10 -62 4 -134 8 -162 10 -178 13 -887 28 -898 19z"/>
</g>
</svg>
