<?xml version="1.0" encoding="utf-8"?>
<!-- Generator: Adobe Illustrator 16.0.4, SVG Export Plug-In . SVG Version: 6.00 Build 0)  -->
<!DOCTYPE svg PUBLIC "-//W3C//DTD SVG 1.0//EN" "http://www.w3.org/TR/2001/REC-SVG-20010904/DTD/svg10.dtd">
<svg version="1.0" id="Layer_1" xmlns="http://www.w3.org/2000/svg" xmlns:xlink="http://www.w3.org/1999/xlink" x="0px" y="0px"
	 width="202.5px" height="126px" viewBox="0 0 202.5 126" enable-background="new 0 0 202.5 126" xml:space="preserve">
<g>
	<g>
		<g>
			<path d="M30.902,71.728c-3.795,0-5.764-2.405-5.764-5.91v-9.062h2.674v9.021c0,2.094,0.955,3.525,3.09,3.525
				c2.137,0,3.09-1.432,3.09-3.525v-9.021h2.676v9.062C36.668,69.322,34.697,71.728,30.902,71.728z"/>
			<path d="M49.728,71.458l-6.366-10.099v10.099h-2.633V56.756h2.84l6.283,9.954v-9.954h2.635v14.702H49.728z"/>
			<path d="M66.811,69.882c-0.975,1.016-2.447,1.576-4.127,1.576h-5.723V56.756h5.723c1.68,0,3.152,0.56,4.127,1.575
				c1.514,1.556,1.721,3.733,1.721,5.766S68.324,68.327,66.811,69.882z M64.758,59.991c-0.498-0.498-1.225-0.83-2.074-0.83h-3.049
				v9.892h3.049c0.85,0,1.576-0.332,2.074-0.829c1.037-1.037,1.057-2.779,1.057-4.127S65.795,61.027,64.758,59.991z"/>
			<path d="M72.178,71.458V56.756h10.472v2.426h-7.798v3.422h6.865v2.405h-6.865v4.023h7.798v2.426H72.178z"/>
			<path d="M94.632,71.458L92.185,65.9H88.93v5.558h-2.696V56.756h6.2c3.505,0,5.101,2.198,5.101,4.562
				c0,1.971-1.078,3.525-2.695,4.127l2.695,6.014H94.632z M92.434,59.099h-3.525v4.396h3.566c1.515,0,2.386-0.788,2.386-2.178
				C94.86,60.136,93.947,59.099,92.434,59.099z"/>
			<path d="M107.028,71.458h-2.945L99.21,56.756h2.842l3.566,11.218l3.546-11.218h2.696L107.028,71.458z"/>
			<path d="M114.614,71.458V56.756h2.717v14.702H114.614z"/>
			<path d="M144.925,71.458l-6.365-10.099v10.099h-2.635V56.756h2.842l6.283,9.954v-9.954h2.633v14.702H144.925z"/>
			<path d="M152.159,71.458V56.756h2.717v14.702H152.159z"/>
			<path d="M168.331,71.458l-6.365-10.099v10.099h-2.635V56.756h2.842l6.283,9.954v-9.954h2.633v14.702H168.331z"/>
			<path d="M184.717,71.099l-0.311-1.617c-0.436,0.85-1.846,1.866-3.691,1.887c-1.699,0.021-3.213-0.414-4.375-1.639
				c-1.535-1.596-1.908-3.566-1.908-5.972s0.311-4.313,1.908-5.91c1.119-1.12,2.799-1.721,4.375-1.721
				c1.805,0,3.359,0.663,4.355,1.68c0.725,0.746,1.264,1.68,1.348,2.966h-2.738c-0.041-0.582-0.33-0.975-0.643-1.349
				c-0.518-0.602-1.326-0.892-2.342-0.892c-0.852,0-1.826,0.373-2.406,0.995c-1.016,1.058-1.141,2.883-1.141,4.23
				c0,1.349,0.145,3.235,1.162,4.292c0.58,0.623,1.533,0.934,2.385,0.934c0.953,0,1.699-0.332,2.197-0.85
				c0.787-0.83,0.953-1.742,0.953-2.862h-3.504v-2.219h6.098v8.046H184.717z"/>
			<path d="M192.333,60.503c0,0.954,0.622,1.452,1.493,1.597c0.931,0.146,2.238,0.249,3.194,0.373
				c2.196,0.312,4.041,1.742,4.041,4.252c0,2.934-2.47,4.645-5.868,4.645c-2.952,0-5.93-1.717-5.93-4.936h2.735
				c0,1.094,0.705,2.592,3.237,2.592c2.087,0,3.13-0.9,3.13-2.197c0-1.078-0.829-1.576-1.742-1.742
				c-0.994-0.187-2.281-0.229-3.255-0.395c-2.034-0.331-3.731-1.658-3.731-4.105c0-2.862,2.883-4.458,5.599-4.458
				c3.269,0,5.598,2.112,5.598,4.562h-2.735c0-1.006-0.982-2.239-2.883-2.239C193.448,58.45,192.333,59.296,192.333,60.503z"/>
			<path d="M123.758,60.862c0,0.954,0.622,1.452,1.493,1.597c0.931,0.146,2.238,0.249,3.194,0.373
				c2.196,0.312,4.041,1.742,4.041,4.252c0,2.934-2.47,4.645-5.868,4.645c-2.952,0-5.93-1.717-5.93-4.936h2.735
				c0,1.094,0.705,2.592,3.237,2.592c2.087,0,3.13-0.9,3.13-2.197c0-1.078-0.829-1.576-1.742-1.742
				c-0.994-0.187-2.281-0.229-3.255-0.395c-2.034-0.331-3.731-1.658-3.731-4.105c0-2.862,2.883-4.458,5.599-4.458
				c3.269,0,5.598,2.112,5.598,4.562h-2.735c0-1.006-0.982-2.239-2.883-2.239C124.873,58.81,123.758,59.655,123.758,60.862z"/>
			<path d="M77.352,80.038c0,0.954,0.622,1.452,1.493,1.597c0.931,0.146,2.238,0.249,3.194,0.373
				c2.196,0.312,4.041,1.742,4.041,4.253c0,2.934-2.47,4.645-5.868,4.645c-2.952,0-5.93-1.717-5.93-4.936h2.735
				c0,1.094,0.705,2.592,3.237,2.592c2.087,0,3.13-0.9,3.13-2.197c0-1.079-0.829-1.577-1.742-1.743
				c-0.994-0.187-2.281-0.229-3.255-0.395c-2.034-0.331-3.731-1.658-3.731-4.105c0-2.862,2.883-4.458,5.599-4.458
				c3.269,0,5.598,2.112,5.598,4.562h-2.735c0-1.006-0.982-2.239-2.883-2.239C78.467,77.985,77.352,78.831,77.352,80.038z"/>
			<path d="M37.725,90.636V80.142L33.91,90.427h-1.971l-3.795-10.409v10.618h-2.592V75.933h3.607l3.857,10.473l3.878-10.473h3.422
				v14.703H37.725z"/>
			<path d="M44.791,90.636V75.933h2.717v14.703H44.791z"/>
			<path d="M60.964,90.636l-6.366-10.1v10.1h-2.633V75.933h2.84l6.283,9.953v-9.953h2.635v14.703H60.964z"/>
			<path d="M68.197,90.636V75.933h2.717v14.703H68.197z"/>
			<path d="M94.425,78.421v12.215h-2.676V78.421h-4.354v-2.488h11.384v2.488H94.425z"/>
			<path d="M101.093,90.636V75.933h10.472v2.426h-7.797v3.422h6.864v2.405h-6.864v4.022h7.797v2.428H101.093z"/>
			<path d="M123.547,90.636l-2.447-5.559h-3.256v5.559h-2.695V75.933h6.201c3.504,0,5.1,2.197,5.1,4.562
				c0,1.969-1.078,3.524-2.695,4.126l2.695,6.015H123.547z M121.35,78.276h-3.526v4.396h3.567c1.514,0,2.385-0.788,2.385-2.177
				C123.775,79.312,122.863,78.276,121.35,78.276z"/>
			<path d="M129.826,90.636V75.933h2.717v14.703H129.826z"/>
			<path d="M137.02,90.636V75.933h10.473v2.426h-7.797v3.422h6.863v2.405h-6.863v4.022h7.797v2.428H137.02z"/>
			<path d="M156.51,78.421v12.215h-2.676V78.421h-4.355v-2.488h11.385v2.488H156.51z"/>
		</g>
		<g>
			<path d="M44.127,19.233c-0.892-0.316-2.296-0.471-3.096-0.471c-0.5,0-0.763,0.013-1.11,0.038l-0.435,0.027
				c0.295-1.203,0.433-1.803,0.433-2.278c0-1.125-0.622-1.581-2.05-1.8c-0.65-0.1-1.737-0.325-3.275-0.325
				c-3.774,0-7.725,0.9-11.469,3.225c-3.744-2.325-7.693-3.225-11.469-3.225c-1.537,0-2.625,0.225-3.275,0.325
				c-1.428,0.22-2.05,0.675-2.05,1.8c0,0.475,0.138,1.075,0.433,2.278l-0.435-0.027c-0.348-0.025-0.61-0.038-1.11-0.038
				c-0.8,0-2.204,0.154-3.096,0.471c-1.166,0.414-1.715,1.368-0.834,3.067c1.147,2.21,6.91,13.286,6.91,13.286l0.215-0.061
				c3.958-1.058,10.474-1.417,14.184-1.382h0.527h0.527c3.71-0.035,10.226,0.324,14.184,1.382l0.215,0.061
				c0,0,5.763-11.076,6.91-13.286C45.842,20.602,45.293,19.647,44.127,19.233z M10.881,33.038c-0.333,0.046-1.212,0.208-1.523,0.28
				l-0.175,0.037L3.433,21.12c0.969-0.432,2.924-0.502,3.971-0.299l3.7,12.181L10.881,33.038z M21.966,32.182H21.24
				c-3.022,0.049-5.244,0.187-7.379,0.437l-0.824,0.095l-0.155-0.533L8.925,16.887c3.984-0.806,9.223,0,13.041,2.428V32.182z
				 M33.213,32.713l-0.824-0.095c-2.135-0.25-4.356-0.388-7.379-0.437h-0.726V19.315c3.818-2.428,9.057-3.234,13.041-2.428
				l-3.957,15.293L33.213,32.713z M37.067,33.354l-0.175-0.037c-0.312-0.072-1.19-0.233-1.523-0.28l-0.222-0.036l3.699-12.181
				c1.047-0.203,3.002-0.133,3.971,0.299L37.067,33.354z"/>
			<path d="M24.102,7.247V4.843h2.517V2.892h-2.517V0.374h-1.952v2.518h-2.517v1.951h2.517v2.404
				c-1.781,0.348-3.105,1.588-3.105,3.11c0,1.787,1.792,3.27,4.046,3.27c2.255,0,4.116-1.482,4.116-3.27
				C27.206,8.836,25.878,7.597,24.102,7.247 M23.09,11.962c-1.255,0-2.284-0.704-2.284-1.605c0-0.904,1.029-1.658,2.284-1.658
				c1.258,0,2.265,0.754,2.265,1.658C25.354,11.258,24.348,11.962,23.09,11.962"/>
			<path d="M23.245,39.67c10.573,0,14.675,1.562,14.675,1.562l0.142-2.268c0,0-4.142-1.562-14.817-1.562S8.189,38.965,8.189,38.965
				l0.142,2.268C8.331,41.232,12.671,39.67,23.245,39.67z"/>
		</g>
	</g>
	<g>
		<path d="M33.392,107.123c-0.796,0.779-1.973,1.145-3.333,1.145c-1.343,0-2.504-0.432-3.284-1.261
			c-0.58-0.613-0.979-1.443-1.062-2.339h0.896c0.083,0.697,0.415,1.344,0.862,1.808c0.63,0.647,1.609,0.963,2.587,0.963
			c1.012,0,2.023-0.266,2.67-0.88c0.415-0.397,0.696-0.945,0.696-1.691c0-1.128-0.878-2.106-2.289-2.289l-2.189-0.282
			c-1.659-0.215-2.886-1.16-2.886-2.969c0-0.979,0.431-1.675,1.028-2.223c0.729-0.663,1.808-1.028,2.902-1.028
			c1.261,0,2.521,0.515,3.185,1.294c0.497,0.581,0.829,1.194,0.896,2.04h-0.88c-0.082-0.597-0.265-1.045-0.646-1.492
			c-0.514-0.631-1.477-1.012-2.555-1.012c-0.846,0-1.659,0.215-2.239,0.713c-0.448,0.397-0.796,0.945-0.796,1.708
			c0,1.394,0.995,1.924,2.073,2.057l2.223,0.282c1.825,0.232,3.069,1.543,3.069,3.201C34.321,105.896,33.939,106.575,33.392,107.123
			z"/>
		<path d="M40.872,97.121v10.931h-0.863V97.121h-3.731v-0.829h8.343v0.829H40.872z"/>
		<path d="M50.641,103.391v4.661h-0.847v-4.661l-4.062-7.099h0.928l3.583,6.253l3.583-6.253h0.879L50.641,103.391z"/>
		<path d="M63.179,102.827l2.389,5.225h-0.945l-2.306-5.009H58.22v5.009h-0.862v-11.76h4.296c2.57,0,3.964,1.344,3.964,3.384
			C65.617,101.218,64.655,102.429,63.179,102.827z M61.653,97.104H58.22v5.142h3.434c1.94,0,3.068-0.896,3.068-2.57
			C64.722,98,63.594,97.104,61.653,97.104z"/>
		<path d="M69.065,108.052v-11.76h7.53v0.829h-6.651v4.312H75.8v0.829h-5.855v4.96h6.651v0.829H69.065z"/>
		<path d="M80.111,108.052v-11.76h0.863v10.947h6.104v0.812H80.111z"/>
		<path d="M96.714,107.123c-0.796,0.779-1.974,1.145-3.334,1.145c-1.344,0-2.505-0.432-3.284-1.261
			c-0.58-0.613-0.979-1.443-1.062-2.339h0.896c0.083,0.697,0.415,1.344,0.863,1.808c0.63,0.647,1.608,0.963,2.587,0.963
			c1.012,0,2.023-0.266,2.671-0.88c0.414-0.397,0.696-0.945,0.696-1.691c0-1.128-0.879-2.106-2.289-2.289l-2.189-0.282
			c-1.658-0.215-2.886-1.16-2.886-2.969c0-0.979,0.431-1.675,1.028-2.223c0.729-0.663,1.808-1.028,2.902-1.028
			c1.261,0,2.521,0.515,3.185,1.294c0.498,0.581,0.829,1.194,0.896,2.04h-0.879c-0.083-0.597-0.266-1.045-0.646-1.492
			c-0.515-0.631-1.477-1.012-2.555-1.012c-0.846,0-1.658,0.215-2.239,0.713c-0.447,0.397-0.796,0.945-0.796,1.708
			c0,1.394,0.995,1.924,2.073,2.057l2.223,0.282c1.824,0.232,3.068,1.543,3.068,3.201C97.643,105.896,97.261,106.575,96.714,107.123
			z"/>
		<path d="M101.142,108.052v-11.76h7.53v0.829h-6.651v4.312h5.855v0.829h-5.855v4.96h6.651v0.829H101.142z"/>
		<path d="M119.867,108.052l-6.816-10.416v10.416h-0.863v-11.76h0.979L120,106.691V96.292h0.846v11.76H119.867z"/>
	</g>
	<g>
		<path d="M26.575,114.374v4.545h5.855v0.829h-5.855v5.557h-0.862v-11.76h7.364v0.829H26.575z"/>
		<path d="M42.878,124.326c-0.73,0.696-1.742,1.194-3.019,1.194c-1.277,0-2.289-0.498-3.019-1.194
			c-1.327-1.277-1.476-3.218-1.476-4.909c0-1.692,0.149-3.616,1.476-4.894c0.73-0.696,1.742-1.194,3.019-1.194
			c1.277,0,2.289,0.498,3.019,1.194c1.327,1.277,1.476,3.201,1.476,4.894C44.354,121.108,44.205,123.049,42.878,124.326z
			 M42.248,115.088c-0.614-0.598-1.476-0.913-2.388-0.913c-0.913,0-1.775,0.315-2.389,0.913c-1.161,1.111-1.211,2.936-1.211,4.329
			c0,1.393,0.05,3.233,1.211,4.345c0.614,0.598,1.476,0.913,2.389,0.913c0.912,0,1.774-0.315,2.388-0.913
			c1.161-1.111,1.211-2.952,1.211-4.345C43.458,118.023,43.409,116.199,42.248,115.088z"/>
		<path d="M53.758,120.08l2.388,5.225h-0.945l-2.306-5.009h-4.097v5.009h-0.862v-11.76h4.296c2.571,0,3.964,1.344,3.964,3.384
			C56.196,118.471,55.234,119.682,53.758,120.08z M52.232,114.357h-3.434v5.142h3.434c1.94,0,3.068-0.896,3.068-2.57
			C55.301,115.253,54.173,114.357,52.232,114.357z"/>
	</g>
	<g>
		<path d="M64.041,125.305v-11.76h0.879v11.76H64.041z"/>
		<path d="M72.383,114.374v10.931h-0.862v-10.931h-3.732v-0.829h8.343v0.829H72.383z"/>
		<path d="M90.079,124.326c-0.73,0.696-1.742,1.194-3.019,1.194c-1.277,0-2.289-0.498-3.019-1.194
			c-1.327-1.277-1.476-3.218-1.476-4.909c0-1.692,0.149-3.616,1.476-4.894c0.73-0.696,1.742-1.194,3.019-1.194
			c1.277,0,2.289,0.498,3.019,1.194c1.327,1.277,1.476,3.201,1.476,4.894C91.555,121.108,91.406,123.049,90.079,124.326z
			 M89.449,115.088c-0.614-0.598-1.476-0.913-2.388-0.913c-0.913,0-1.775,0.315-2.389,0.913c-1.161,1.111-1.211,2.936-1.211,4.329
			c0,1.393,0.05,3.233,1.211,4.345c0.614,0.598,1.476,0.913,2.389,0.913c0.912,0,1.774-0.315,2.388-0.913
			c1.161-1.111,1.211-2.952,1.211-4.345C90.66,118.023,90.61,116.199,89.449,115.088z"/>
		<path d="M102.584,125.305l-0.182-1.808c-0.614,1.261-2.024,2.023-3.434,2.023c-1.26,0-2.372-0.515-3.102-1.244
			c-1.26-1.244-1.493-3.168-1.493-4.843c0-1.692,0.216-3.566,1.493-4.827c0.747-0.729,1.841-1.277,3.102-1.277
			c2.422,0,4.081,1.477,4.247,3.5h-0.879c-0.066-0.763-0.349-1.277-0.78-1.758c-0.614-0.664-1.56-0.896-2.571-0.896
			s-1.824,0.365-2.438,0.963c-1.095,1.078-1.277,2.853-1.277,4.296c0,1.426,0.183,3.283,1.294,4.328
			c0.63,0.598,1.443,0.913,2.405,0.913c0.946,0,1.825-0.365,2.355-0.93c0.946-0.995,1.028-2.388,1.028-3.682h-3.466v-0.846h4.345
			v6.087H102.584z"/>
		<path d="M111.606,125.305v-11.76h0.862v10.947h6.104v0.812H111.606z"/>
		<path d="M126.898,125.305v-3.284h-4.844l-1.426,3.284h-0.93l5.209-11.76h8.607v0.796h-5.771v4.279h4.942v0.813h-4.942v5.059h5.771
			v0.812H126.898z M126.898,114.341h-1.477l-3.002,6.884h4.479V114.341z"/>
		<path d="M142.854,120.08l2.389,5.225h-0.946l-2.305-5.009h-4.098v5.009h-0.862v-11.76h4.296c2.571,0,3.965,1.344,3.965,3.384
			C145.292,118.471,144.329,119.682,142.854,120.08z M141.327,114.357h-3.434v5.142h3.434c1.94,0,3.068-0.896,3.068-2.57
			C144.396,115.253,143.268,114.357,141.327,114.357z"/>
		<path d="M148.74,125.305v-11.76h0.879v11.76H148.74z"/>
		<path d="M161.71,125.305l-6.816-10.416v10.416h-0.863v-11.76h0.979l6.834,10.399v-10.399h0.846v11.76H161.71z"/>
		<path d="M174.547,125.305l-0.183-1.808c-0.613,1.261-2.023,2.023-3.433,2.023c-1.261,0-2.372-0.515-3.102-1.244
			c-1.261-1.244-1.493-3.168-1.493-4.843c0-1.692,0.216-3.566,1.493-4.827c0.746-0.729,1.841-1.277,3.102-1.277
			c2.421,0,4.08,1.477,4.246,3.5h-0.879c-0.066-0.763-0.349-1.277-0.78-1.758c-0.613-0.664-1.559-0.896-2.57-0.896
			s-1.825,0.365-2.438,0.963c-1.095,1.078-1.277,2.853-1.277,4.296c0,1.426,0.183,3.283,1.294,4.328
			c0.63,0.598,1.443,0.913,2.405,0.913c0.945,0,1.824-0.365,2.354-0.93c0.946-0.995,1.029-2.388,1.029-3.682h-3.467v-0.846h4.346
			v6.087H174.547z"/>
	</g>
</g>
</svg>
