<?xml version="1.0" encoding="utf-8"?>
<!-- Generator: Adobe Illustrator 16.0.4, SVG Export Plug-In . SVG Version: 6.00 Build 0)  -->
<!DOCTYPE svg PUBLIC "-//W3C//DTD SVG 1.1//EN" "http://www.w3.org/Graphics/SVG/1.1/DTD/svg11.dtd">
<svg version="1.1" id="Logotype" xmlns="http://www.w3.org/2000/svg" xmlns:xlink="http://www.w3.org/1999/xlink" x="0px" y="0px"
	 width="200.207px" height="90.531px" viewBox="0 0 200.207 90.531" enable-background="new 0 0 200.207 90.531"
	 xml:space="preserve">
<g>
	<g>
		<path d="M30.048,71.354c-3.795,0-5.764-2.405-5.764-5.91v-9.062h2.674v9.021c0,2.094,0.955,3.525,3.09,3.525
			c2.137,0,3.09-1.432,3.09-3.525v-9.021h2.676v9.062C35.813,68.949,33.843,71.354,30.048,71.354z"/>
		<path d="M48.873,71.084l-6.366-10.099v10.099h-2.633V56.382h2.84l6.283,9.954v-9.954h2.635v14.702H48.873z"/>
		<path d="M65.956,69.508c-0.975,1.016-2.447,1.576-4.127,1.576h-5.723V56.382h5.723c1.68,0,3.152,0.56,4.127,1.575
			c1.514,1.556,1.721,3.733,1.721,5.766S67.47,67.954,65.956,69.508z M63.903,59.618c-0.498-0.498-1.225-0.83-2.074-0.83H58.78
			v9.892h3.049c0.85,0,1.576-0.332,2.074-0.829c1.037-1.037,1.057-2.779,1.057-4.127S64.94,60.654,63.903,59.618z"/>
		<path d="M71.323,71.084V56.382h10.472v2.426h-7.798v3.422h6.865v2.405h-6.865v4.023h7.798v2.426H71.323z"/>
		<path d="M93.777,71.084l-2.447-5.558h-3.255v5.558h-2.696V56.382h6.2c3.505,0,5.101,2.198,5.101,4.562
			c0,1.971-1.078,3.525-2.695,4.127l2.695,6.014H93.777z M91.579,58.725h-3.525v4.396h3.566c1.515,0,2.386-0.788,2.386-2.178
			C94.006,59.762,93.093,58.725,91.579,58.725z"/>
		<path d="M106.174,71.084h-2.945l-4.873-14.702h2.842l3.566,11.218l3.546-11.218h2.696L106.174,71.084z"/>
		<path d="M113.76,71.084V56.382h2.717v14.702H113.76z"/>
		<path d="M144.07,71.084l-6.365-10.099v10.099h-2.635V56.382h2.842l6.283,9.954v-9.954h2.633v14.702H144.07z"/>
		<path d="M151.305,71.084V56.382h2.717v14.702H151.305z"/>
		<path d="M167.477,71.084l-6.365-10.099v10.099h-2.635V56.382h2.842l6.283,9.954v-9.954h2.633v14.702H167.477z"/>
		<path d="M183.862,70.725l-0.311-1.617c-0.436,0.85-1.846,1.866-3.691,1.887c-1.699,0.021-3.213-0.414-4.375-1.639
			c-1.535-1.596-1.908-3.566-1.908-5.972s0.311-4.313,1.908-5.91c1.119-1.12,2.799-1.721,4.375-1.721
			c1.805,0,3.359,0.663,4.355,1.68c0.725,0.746,1.264,1.68,1.348,2.966h-2.738c-0.041-0.582-0.33-0.975-0.643-1.349
			c-0.518-0.602-1.326-0.892-2.342-0.892c-0.852,0-1.826,0.373-2.406,0.995c-1.016,1.058-1.141,2.883-1.141,4.23
			c0,1.349,0.145,3.235,1.162,4.292c0.58,0.623,1.533,0.934,2.385,0.934c0.953,0,1.699-0.332,2.197-0.85
			c0.787-0.83,0.953-1.742,0.953-2.862h-3.504v-2.219h6.098v8.046H183.862z"/>
		<path d="M191.479,60.129c0,0.954,0.622,1.452,1.493,1.597c0.931,0.146,2.238,0.249,3.194,0.373
			c2.196,0.312,4.041,1.742,4.041,4.252c0,2.934-2.47,4.645-5.868,4.645c-2.952,0-5.93-1.717-5.93-4.936h2.735
			c0,1.094,0.705,2.592,3.237,2.592c2.087,0,3.13-0.9,3.13-2.197c0-1.078-0.829-1.576-1.742-1.742
			c-0.994-0.187-2.281-0.229-3.255-0.395c-2.034-0.331-3.731-1.658-3.731-4.105c0-2.862,2.883-4.458,5.599-4.458
			c3.269,0,5.598,2.112,5.598,4.562h-2.735c0-1.006-0.982-2.239-2.883-2.239C192.594,58.077,191.479,58.922,191.479,60.129z"/>
		<path d="M122.903,60.489c0,0.954,0.622,1.452,1.493,1.597c0.931,0.146,2.238,0.249,3.194,0.373
			c2.196,0.312,4.041,1.742,4.041,4.252c0,2.934-2.47,4.645-5.868,4.645c-2.952,0-5.93-1.717-5.93-4.936h2.735
			c0,1.094,0.705,2.592,3.237,2.592c2.087,0,3.13-0.9,3.13-2.197c0-1.078-0.829-1.576-1.742-1.742
			c-0.994-0.187-2.281-0.229-3.255-0.395c-2.034-0.331-3.731-1.658-3.731-4.105c0-2.862,2.883-4.458,5.599-4.458
			c3.269,0,5.598,2.112,5.598,4.562h-2.735c0-1.006-0.982-2.239-2.883-2.239C124.019,58.436,122.903,59.282,122.903,60.489z"/>
		<path d="M76.498,79.665c0,0.954,0.622,1.452,1.493,1.597c0.931,0.146,2.238,0.249,3.194,0.373
			c2.196,0.312,4.041,1.742,4.041,4.252c0,2.934-2.47,4.645-5.868,4.645c-2.952,0-5.93-1.717-5.93-4.936h2.735
			c0,1.094,0.705,2.592,3.237,2.592c2.087,0,3.13-0.9,3.13-2.197c0-1.078-0.829-1.576-1.742-1.742
			c-0.994-0.187-2.281-0.229-3.255-0.395c-2.034-0.331-3.731-1.658-3.731-4.105c0-2.862,2.883-4.458,5.599-4.458
			c3.269,0,5.598,2.112,5.598,4.562h-2.735c0-1.006-0.982-2.239-2.883-2.239C77.613,77.612,76.498,78.458,76.498,79.665z"/>
		<path d="M36.87,90.261V79.768l-3.814,10.285h-1.971L27.29,79.644v10.617h-2.592V75.559h3.607l3.857,10.472l3.878-10.472h3.422
			v14.702H36.87z"/>
		<path d="M43.937,90.261V75.559h2.717v14.702H43.937z"/>
		<path d="M60.109,90.261l-6.366-10.099v10.099H51.11V75.559h2.84l6.283,9.953v-9.953h2.635v14.702H60.109z"/>
		<path d="M67.343,90.261V75.559h2.717v14.702H67.343z"/>
		<path d="M93.57,78.047v12.214h-2.676V78.047H86.54v-2.488h11.384v2.488H93.57z"/>
		<path d="M100.238,90.261V75.559h10.472v2.426h-7.797v3.422h6.864v2.405h-6.864v4.022h7.797v2.427H100.238z"/>
		<path d="M122.692,90.261l-2.447-5.558h-3.256v5.558h-2.695V75.559h6.201c3.504,0,5.1,2.197,5.1,4.562
			c0,1.969-1.078,3.524-2.695,4.126l2.695,6.014H122.692z M120.495,77.903h-3.526v4.396h3.567c1.514,0,2.385-0.788,2.385-2.177
			C122.921,78.939,122.009,77.903,120.495,77.903z"/>
		<path d="M128.972,90.261V75.559h2.717v14.702H128.972z"/>
		<path d="M136.165,90.261V75.559h10.473v2.426h-7.797v3.422h6.863v2.405h-6.863v4.022h7.797v2.427H136.165z"/>
		<path d="M155.655,78.047v12.214h-2.676V78.047h-4.355v-2.488h11.385v2.488H155.655z"/>
	</g>
	<g>
		<path d="M43.272,18.859c-0.892-0.316-2.296-0.471-3.096-0.471c-0.5,0-0.763,0.013-1.11,0.038l-0.435,0.027
			c0.295-1.203,0.433-1.803,0.433-2.278c0-1.125-0.622-1.581-2.05-1.8c-0.65-0.1-1.737-0.325-3.275-0.325
			c-3.774,0-7.725,0.9-11.469,3.225c-3.744-2.325-7.693-3.225-11.469-3.225c-1.537,0-2.625,0.225-3.275,0.325
			c-1.428,0.22-2.05,0.675-2.05,1.8c0,0.475,0.138,1.075,0.433,2.278l-0.435-0.027c-0.348-0.025-0.61-0.038-1.11-0.038
			c-0.8,0-2.204,0.154-3.096,0.471c-1.166,0.414-1.715,1.368-0.834,3.067c1.147,2.21,6.91,13.286,6.91,13.286l0.215-0.061
			c3.958-1.058,10.474-1.417,14.184-1.382h0.527h0.527c3.71-0.035,10.226,0.324,14.184,1.382l0.215,0.061
			c0,0,5.763-11.076,6.91-13.286C44.987,20.228,44.438,19.273,43.272,18.859z M10.026,32.664c-0.333,0.046-1.212,0.208-1.523,0.28
			L8.328,32.98l-5.75-12.234c0.969-0.432,2.924-0.502,3.971-0.299l3.7,12.181L10.026,32.664z M21.111,31.808h-0.726
			c-3.022,0.049-5.244,0.187-7.379,0.437l-0.824,0.095l-0.155-0.533L8.07,16.513c3.984-0.806,9.223,0,13.041,2.428V31.808z
			 M32.358,32.339l-0.824-0.095c-2.135-0.25-4.356-0.388-7.379-0.437H23.43V18.941c3.818-2.428,9.057-3.234,13.041-2.428
			l-3.957,15.293L32.358,32.339z M36.213,32.98l-0.175-0.037c-0.312-0.072-1.19-0.233-1.523-0.28l-0.222-0.036l3.699-12.181
			c1.047-0.203,3.002-0.133,3.971,0.299L36.213,32.98z"/>
		<path d="M23.247,6.873V4.469h2.517V2.518h-2.517V0h-1.952v2.518h-2.517v1.951h2.517v2.404c-1.781,0.348-3.105,1.588-3.105,3.11
			c0,1.787,1.792,3.27,4.046,3.27c2.255,0,4.116-1.482,4.116-3.27C26.352,8.462,25.023,7.223,23.247,6.873 M22.235,11.588
			c-1.255,0-2.284-0.704-2.284-1.605c0-0.904,1.029-1.658,2.284-1.658c1.258,0,2.265,0.754,2.265,1.658
			C24.5,10.884,23.493,11.588,22.235,11.588"/>
		<path d="M22.391,39.296c10.573,0,14.675,1.562,14.675,1.562l0.142-2.268c0,0-4.142-1.562-14.817-1.562S7.335,38.591,7.335,38.591
			l0.142,2.268C7.477,40.858,11.816,39.296,22.391,39.296z"/>
	</g>
</g>
</svg>
